Coordinates
version=1
nRows=14
nColumns=40
inDegrees=yes

Units are S.I. units (second, meters, Newtons, ...)
If the header above contains a line with 'inDegrees', this indicates whether rotational values are in degrees (yes) or radians (no).

endheader
time	pelvis_tilt	pelvis_list	pelvis_rotation	pelvis_tx	pelvis_ty	pelvis_tz	hip_flexion_r	hip_adduction_r	hip_rotation_r	knee_angle_r	knee_angle_r_beta	ankle_angle_r	subtalar_angle_r	mtp_angle_r	hip_flexion_l	hip_adduction_l	hip_rotation_l	knee_angle_l	knee_angle_l_beta	ankle_angle_l	subtalar_angle_l	mtp_angle_l	lumbar_extension	lumbar_bending	lumbar_rotation	arm_flex_r	arm_add_r	arm_rot_r	elbow_flex_r	pro_sup_r	wrist_flex_r	wrist_dev_r	arm_flex_l	arm_add_l	arm_rot_l	elbow_flex_l	pro_sup_l	wrist_flex_l	wrist_dev_l
      0.89000000	      0.20507989	      8.95742551	    -89.88234920	      0.25049018	      0.96352936	      0.43758040	     27.75293477	     -3.53879048	     -4.43720343	     65.26591438	      1.13910510	     -4.84157269	      0.00000000	      0.00000000	     19.49791965	      3.85545721	      2.66147235	     18.62232141	      0.32502082	      2.31966277	      0.00000000	      0.00000000	      5.01626041	     -1.49213590	     -1.62352882	      0.00000000	      0.00000000	      0.00000000	      0.00000000	      0.00000000	      0.00000000	      0.00000000	      0.00000000	      0.00000000	      0.00000000	      0.00000000	      0.00000000	      0.00000000	      0.00000000
      0.90000000	     -0.20280740	      9.10796519	    -89.88182259	      0.25134679	      0.96559556	      0.45276248	     29.45663495	     -3.10445876	     -4.86514761	     63.68521759	      1.11151673	     -3.29081724	     -0.00000000	     -0.00000000	     18.03514014	      3.46810103	      2.79212795	     17.46126724	      0.30475660	      2.50740071	      0.00000000	      0.00000000	      5.12646162	     -0.91363936	     -1.80954871	      0.00000000	      0.00000000	     -0.00000000	      0.00000000	      0.00000000	      0.00000000	      0.00000000	      0.00000000	     -0.00000000	      0.00000000	      0.00000000	      0.00000000	      0.00000000	     -0.00000000
      0.91000000	     -0.52294963	      9.05417491	    -89.88015810	      0.25217555	      0.96755760	      0.46809972	     30.75912106	     -2.76156042	     -5.30871166	     61.65679791	      1.07611413	     -2.04083028	      0.00000000	      0.00000000	     16.31658927	      3.16138577	      2.83293174	     16.22420779	      0.28316584	      2.63745281	      0.00000000	      0.00000000	      4.99943499	     -0.44651289	     -1.97970772	      0.00000000	      0.00000000	      0.00000000	      0.00000000	      0.00000000	      0.00000000	      0.00000000	      0.00000000	      0.00000000	      0.00000000	      0.00000000	      0.00000000	      0.00000000	      0.00000000
      0.92000000	     -0.83186187	      9.17982371	    -89.87576530	      0.25290007	      0.96876905	      0.48335266	     32.12225570	     -2.39652969	     -5.74738323	     59.24940154	      1.03409714	     -1.14286768	      0.00000000	      0.00000000	     14.85210060	      2.87162743	      2.92793031	     15.10305626	      0.26359806	      2.84712614	      0.00000000	      0.00000000	      5.08103103	     -0.00774154	     -2.11133395	      0.00000000	      0.00000000	      0.00000000	      0.00000000	      0.00000000	      0.00000000	      0.00000000	      0.00000000	      0.00000000	      0.00000000	      0.00000000	      0.00000000	      0.00000000	      0.00000000
      0.93000000	     -1.02579393	      9.07057577	    -89.87032612	      0.25364241	      0.96979920	      0.49879987	     33.05483992	     -2.14866170	     -6.18957721	     56.46030369	      0.98541820	     -0.51955088	      0.00000000	      0.00000000	     13.10183140	      2.69917643	      2.94084378	     13.92573955	      0.24305001	      3.02909571	      0.00000000	      0.00000000	      4.88137877	      0.29304369	     -2.23699699	      0.00000000	      0.00000000	      0.00000000	      0.00000000	      0.00000000	      0.00000000	      0.00000000	      0.00000000	      0.00000000	      0.00000000	      0.00000000	      0.00000000	      0.00000000	      0.00000000
      0.94000000	     -1.14623212	      8.98958033	    -89.86253208	      0.25431660	      0.97023240	      0.51426036	     33.87627273	     -1.95586353	     -6.63739428	     53.33882748	      0.93093816	     -0.09317833	      0.00000000	      0.00000000	     11.41276878	      2.60953485	      2.98912816	     12.80929339	      0.22356434	      3.26019192	      0.00000000	      0.00000000	      4.71602297	      0.49145841	     -2.33316543	      0.00000000	      0.00000000	      0.00000000	      0.00000000	      0.00000000	      0.00000000	      0.00000000	      0.00000000	      0.00000000	      0.00000000	      0.00000000	      0.00000000	      0.00000000	      0.00000000
      0.95000000	     -1.16200680	      8.79446657	    -89.85179695	      0.25496435	      0.97024750	      0.52981057	     34.43274719	     -1.85813922	     -7.09983755	     49.92042007	      0.87127569	      0.15890093	      0.00000000	     -0.00000000	      9.61538076	      2.63274575	      3.04384319	     11.73629931	      0.20483707	      3.49713640	      0.00000000	      0.00000000	      4.41864480	      0.55870242	     -2.40990280	     -0.00000000	     -0.00000000	     -0.00000000	      0.00000000	      0.00000000	      0.00000000	      0.00000000	     -0.00000000	     -0.00000000	     -0.00000000	      0.00000000	      0.00000000	      0.00000000	      0.00000000
      0.96000000	     -1.12476520	      8.73729327	    -89.83633394	      0.25553999	      0.96946470	      0.54532765	     35.02385708	     -1.78958562	     -7.58735593	     46.25366615	      0.80727877	      0.29892137	      0.00000000	      0.00000000	      8.02509338	      2.71500993	      3.16604702	     10.78731513	      0.18827417	      3.82662424	     -0.00000000	     -0.00000000	      4.29222996	      0.55152595	     -2.42096665	      0.00000000	     -0.00000000	      0.00000000	      0.00000000	      0.00000000	      0.00000000	      0.00000000	     -0.00000000	     -0.00000000	      0.00000000	      0.00000000	      0.00000000	     -0.00000000	     -0.00000000
      0.97000000	     -0.95137965	      8.27283541	    -89.81644777	      0.25608959	      0.96872967	      0.56110886	     35.01982189	     -1.84733750	     -8.11803167	     42.33002848	      0.73879837	      0.25846187	      0.00000000	      0.00000000	      5.94130825	      2.93384215	      3.22779963	      9.75174478	      0.17020005	      4.08929899	      0.00000000	      0.00000000	      3.65516140	      0.37291672	     -2.50717136	      0.00000000	      0.00000000	      0.00000000	      0.00000000	      0.00000000	      0.00000000	      0.00000000	      0.00000000	      0.00000000	      0.00000000	      0.00000000	      0.00000000	      0.00000000	      0.00000000
      0.98000000	     -0.74872893	      7.97829561	    -89.78713683	      0.25653847	      0.96717958	      0.57685821	     35.11574130	     -1.90323754	     -8.69898803	     38.25588808	      0.66769121	      0.15682518	      0.00000000	      0.00000000	      4.10685233	      3.18239834	      3.39092866	      8.86639666	      0.15474781	      4.46008612	      0.00000000	      0.00000000	      3.23192877	      0.14609659	     -2.51644964	      0.00000000	      0.00000000	      0.00000000	      0.00000000	      0.00000000	      0.00000000	      0.00000000	      0.00000000	      0.00000000	      0.00000000	      0.00000000	      0.00000000	      0.00000000	      0.00000000
      0.99000000	     -0.45038528	      7.58211333	    -89.74890507	      0.25689266	      0.96523467	      0.59270180	     35.02815325	     -2.01088020	     -9.26679854	     34.10231814	      0.59519773	      0.06190569	      0.00000000	      0.00000000	      2.17209138	      3.52050952	      3.54572721	      8.01688757	      0.13992108	      4.82451871	      0.00000000	      0.00000000	      2.68370688	     -0.20827233	     -2.55485464	      0.00000000	      0.00000000	      0.00000000	      0.00000000	      0.00000000	      0.00000000	      0.00000000	      0.00000000	      0.00000000	      0.00000000	      0.00000000	      0.00000000	      0.00000000	      0.00000000
      1.00000000	     -0.12191076	      7.21278094	    -89.69184018	      0.25713569	      0.96277111	      0.60858217	     34.91069553	     -2.09641562	     -9.80012164	     29.92062846	      0.52221348	     -0.02291336	      0.00000000	      0.00000000	      0.30588405	      3.87908980	      3.76248776	      7.26391220	      0.12677918	      5.22682305	      0.00000000	      0.00000000	      2.16463136	     -0.61266618	     -2.59387959	      0.00000000	      0.00000000	      0.00000000	      0.00000000	      0.00000000	      0.00000000	      0.00000000	      0.00000000	      0.00000000	      0.00000000	      0.00000000	      0.00000000	      0.00000000	      0.00000000
      1.01000000	      0.30534792	      7.15726542	    -89.61956626	      0.25719922	      0.95940345	      0.62429941	     35.14587273	     -2.18306413	    -10.02023190	     25.85657226	      0.45128232	      0.06903034	      0.00000000	      0.00000000	     -1.09883175	      4.32260076	      3.95705189	      6.75234521	      0.11785066	      5.74943802	      0.00000000	      0.00000000	      1.98245829	     -1.17607443	     -2.62903860	      0.00000000	      0.00000000	      0.00000000	      0.00000000	      0.00000000	      0.00000000	      0.00000000	      0.00000000	      0.00000000	      0.00000000	      0.00000000	      0.00000000	      0.00000000	      0.00000000
      1.02000000	      0.56521911	      6.62038953	    -89.47837889	      0.25728803	      0.95645723	      0.64049728	     34.70658735	     -2.12626687	    -10.46045840	     21.74406717	      0.37950556	     -0.08907940	     -0.00000000	      0.00000000	     -3.11931348	      4.57485607	      4.33864320	      6.12326902	      0.10687121	      6.23454052	     -0.00000000	      0.00000000	      1.28337761	     -1.50661448	     -2.70656049	     -0.00000000	     -0.00000000	      0.00000000	      0.00000000	      0.00000000	      0.00000000	     -0.00000000	     -0.00000000	     -0.00000000	     -0.00000000	      0.00000000	      0.00000000	      0.00000000	     -0.00000000
